{
  "accessors": [
    {
      "bufferView": 2,
      "componentType": 5126,
      "count": 600,
      "max": [
        0.34165075421333313,
        0.3373364210128784,
        0.9187403321266174
      ],
      "min": [
        -0.34454044699668884,
        -0.335725873708725,
        -0.00038673917879350483
      ],
      "type": "VEC3"
    },
    {
      "bufferView": 2,
      "byteOffset": 7200,
      "componentType": 5126,
      "count": 600,
      "max": [
        0.991702139377594,
        0.9909169673919678,
        0.9988985657691956
      ],
      "min": [
        -0.9916632175445557,
        -0.9909173846244812,
        -0.9999885559082031
      ],
      "type": "VEC3"
    },
    {
      "bufferView": 1,
      "componentType": 5126,
      "count": 600,
      "max": [
        0.9873315095901489,
        0.999724805355072
      ],
      "min": [
        0.0008116182871162891,
        0.0007417056476697326
      ],
      "type": "VEC2"
    },
    {
      "bufferView": 1,
      "byteOffset": 4800,
      "componentType": 5126,
      "count": 600,
      "max": [
        0.9873315095901489,
        0.999724805355072
      ],
      "min": [
        0.0008116182871162891,
        0.0007417056476697326
      ],
      "type": "VEC2"
    },
    {
      "bufferView": 1,
      "byteOffset": 9600,
      "componentType": 5126,
      "count": 600,
      "max": [
        0.9873315095901489,
        0.999724805355072
      ],
      "min": [
        0.0008116182871162891,
        0.0007417056476697326
      ],
      "type": "VEC2"
    },
    {
      "bufferView": 0,
      "componentType": 5125,
      "count": 2496,
      "type": "SCALAR"
    }
  ],
  "asset": {
    "extras": {
      "author": "Dasamura (https://sketchfab.com/Dasamura)",
      "license": "CC-BY-4.0 (http://creativecommons.org/licenses/by/4.0/)",
      "source": "https://sketchfab.com/3d-models/traffic-cone-774f986b5ea5432f99a1d06d6e1c4c9b",
      "title": "Traffic Cone"
    },
    "generator": "Sketchfab-15.55.0",
    "version": "2.0"
  },
  "bufferViews": [
    {
      "buffer": 0,
      "byteLength": 9984,
      "name": "floatBufferViews",
      "target": 34963
    },
    {
      "buffer": 0,
      "byteLength": 14400,
      "byteOffset": 9984,
      "byteStride": 8,
      "name": "floatBufferViews",
      "target": 34962
    },
    {
      "buffer": 0,
      "byteLength": 14400,
      "byteOffset": 24384,
      "byteStride": 12,
      "name": "floatBufferViews",
      "target": 34962
    }
  ],
  "buffers": [
    {
      "byteLength": 38784,
      "uri": "scene.bin"
    }
  ],
  "extensionsUsed": [
    "KHR_materials_specular"
  ],
  "images": [
    {
      "uri": "textures/material_baseColor.png"
    },
    {
      "uri": "textures/material_metallicRoughness.png"
    }
  ],
  "materials": [
    {
      "doubleSided": true,
      "extensions": {
        "KHR_materials_specular": {
          "specularColorFactor": [
            1.0,
            1.0,
            1.0
          ],
          "specularFactor": 0.0
        }
      },
      "name": "material",
      "occlusionTexture": {
        "index": 1
      },
      "pbrMetallicRoughness": {
        "baseColorTexture": {
          "index": 0
        },
        "metallicFactor": 0.0,
        "metallicRoughnessTexture": {
          "index": 1
        }
      }
    }
  ],
  "meshes": [
    {
      "name": "Circle.001_Con_0",
      "primitives": [
        {
          "attributes": {
            "NORMAL": 1,
            "POSITION": 0,
            "TEXCOORD_0": 2,
            "TEXCOORD_1": 3,
            "TEXCOORD_2": 4
          },
          "indices": 5,
          "material": 0,
          "mode": 4
        }
      ]
    }
  ],
  "nodes": [
    {
      "children": [
        1
      ],
      "matrix": [
        0.7365280389785767,
        0.0,
        0.0,
        0.0,
        0.0,
        1.6354207743120611e-16,
        -0.7365280389785767,
        0.0,
        0.0,
        0.7365280389785767,
        1.6354207743120611e-16,
        0.0,
        0.0,
        0.0,
        0.0,
        1.0
      ],
      "name": "Sketchfab_model"
    },
    {
      "children": [
        2
      ],
      "matrix": [
        0.009999999776482582,
        0.0,
        0.0,
        0.0,
        0.0,
        0.0,
        0.009999999776482582,
        0.0,
        0.0,
        -0.009999999776482582,
        0.0,
        0.0,
        0.0,
        0.0,
        0.0,
        1.0
      ],
      "name": "55ffa0e0c11b4f26a9dfed2d349224e5.fbx"
    },
    {
      "children": [
        3
      ],
      "name": "RootNode"
    },
    {
      "children": [
        4
      ],
      "matrix": [
        100.0,
        0.0,
        0.0,
        0.0,
        0.0,
        -1.629206793918314e-05,
        -99.99999999999868,
        0.0,
        0.0,
        99.99999999999868,
        -1.629206793918314e-05,
        0.0,
        0.0,
        0.0,
        0.0,
        1.0
      ],
      "name": "Circle.001"
    },
    {
      "mesh": 0,
      "name": "Circle.001_Con_0"
    }
  ],
  "samplers": [
    {
      "magFilter": 9729,
      "minFilter": 9987,
      "wrapS": 10497,
      "wrapT": 10497
    }
  ],
  "scene": 0,
  "scenes": [
    {
      "name": "Sketchfab_Scene",
      "nodes": [
        0
      ]
    }
  ],
  "textures": [
    {
      "sampler": 0,
      "source": 0
    },
    {
      "sampler": 0,
      "source": 1
    }
  ]
}
