{
  "accessors": [
    {
      "bufferView": 2,
      "componentType": 5126,
      "count": 19218,
      "max": [
        0.3622150123119354,
        1.0,
        0.1669660061597824
      ],
      "min": [
        -0.3622150123119354,
        -1.0,
        -0.1669660061597824
      ],
      "type": "VEC3"
    },
    {
      "bufferView": 2,
      "byteOffset": 230616,
      "componentType": 5126,
      "count": 19218,
      "max": [
        0.9999781847000122,
        0.9988260865211487,
        0.9999935626983643
      ],
      "min": [
        -0.9999734163284302,
        -0.9995948076248169,
        -0.9999995231628418
      ],
      "type": "VEC3"
    },
    {
      "bufferView": 3,
      "componentType": 5126,
      "count": 19218,
      "max": [
        0.9999998807907104,
        0.9471144080162048,
        0.9999569058418274,
        1.0
      ],
      "min": [
        -1.0,
        -0.9784112572669983,
        -0.9999964833259583,
        1.0
      ],
      "type": "VEC4"
    },
    {
      "bufferView": 1,
      "componentType": 5126,
      "count": 19218,
      "max": [
        0.9918180108070374,
        0.996254026889801
      ],
      "min": [
        0.0032228799536824226,
        0.0009294750052504241
      ],
      "type": "VEC2"
    },
    {
      "bufferView": 0,
      "componentType": 5125,
      "count": 111360,
      "type": "SCALAR"
    }
  ],
  "asset": {
    "extras": {
      "author": "Karol Kłaput (https://sketchfab.com/mrgolec)",
      "license": "CC-BY-4.0 (http://creativecommons.org/licenses/by/4.0/)",
      "source": "https://sketchfab.com/3d-models/aristocratic-hand-mirror-a3348d3e4a674350af738e8cf20ec378",
      "title": "Aristocratic Hand Mirror"
    },
    "generator": "Sketchfab-12.68.0",
    "version": "2.0"
  },
  "bufferViews": [
    {
      "buffer": 0,
      "byteLength": 445440,
      "name": "floatBufferViews",
      "target": 34963
    },
    {
      "buffer": 0,
      "byteLength": 153744,
      "byteOffset": 445440,
      "byteStride": 8,
      "name": "floatBufferViews",
      "target": 34962
    },
    {
      "buffer": 0,
      "byteLength": 461232,
      "byteOffset": 599184,
      "byteStride": 12,
      "name": "floatBufferViews",
      "target": 34962
    },
    {
      "buffer": 0,
      "byteLength": 307488,
      "byteOffset": 1060416,
      "byteStride": 16,
      "name": "floatBufferViews",
      "target": 34962
    }
  ],
  "buffers": [
    {
      "byteLength": 1367904,
      "uri": "scene.bin"
    }
  ],
  "images": [
    {
      "uri": "textures/unwrapBaseShader1_baseColor.jpeg"
    },
    {
      "uri": "textures/unwrapBaseShader1_metallicRoughness.png"
    },
    {
      "uri": "textures/unwrapBaseShader1_normal.png"
    }
  ],
  "materials": [
    {
      "doubleSided": true,
      "name": "unwrapBaseShader1",
      "normalTexture": {
        "index": 2
      },
      "occlusionTexture": {
        "index": 1
      },
      "pbrMetallicRoughness": {
        "baseColorTexture": {
          "index": 0
        },
        "metallicRoughnessTexture": {
          "index": 1
        }
      }
    }
  ],
  "meshes": [
    {
      "name": "defaultMaterial",
      "primitives": [
        {
          "attributes": {
            "NORMAL": 1,
            "POSITION": 0,
            "TANGENT": 2,
            "TEXCOORD_0": 3
          },
          "indices": 4,
          "material": 0,
          "mode": 4
        }
      ]
    }
  ],
  "nodes": [
    {
      "children": [
        1
      ],
      "matrix": [
        -0.9684653282165527,
        -5.5322074286840456e-17,
        0.24914847314357758,
        0.0,
        0.24914847314357758,
        -2.1504250118743523e-16,
        0.9684653282165527,
        0.0,
        0.0,
        1.0,
        2.220446049250313e-16,
        0.0,
        -0.0024420798290520906,
        -2.3999999765689205e-09,
        0.00016498919285368174,
        1.0
      ],
      "name": "Sketchfab_model"
    },
    {
      "children": [
        2
      ],
      "matrix": [
        1.0,
        0.0,
        0.0,
        0.0,
        0.0,
        -4.371139006309477e-08,
        0.999999999999999,
        0.0,
        0.0,
        -0.999999999999999,
        -4.371139006309477e-08,
        0.0,
        0.0,
        0.0,
        0.0,
        1.0
      ],
      "name": "Collada visual scene group"
    },
    {
      "children": [
        3
      ],
      "name": "pCube1"
    },
    {
      "mesh": 0,
      "name": "defaultMaterial"
    }
  ],
  "samplers": [
    {
      "magFilter": 9729,
      "minFilter": 9987,
      "wrapS": 10497,
      "wrapT": 10497
    }
  ],
  "scene": 0,
  "scenes": [
    {
      "name": "Sketchfab_Scene",
      "nodes": [
        0
      ]
    }
  ],
  "textures": [
    {
      "sampler": 0,
      "source": 0
    },
    {
      "sampler": 0,
      "source": 1
    },
    {
      "sampler": 0,
      "source": 2
    }
  ]
}
