{
  "accessors": [
    {
      "bufferView": 2,
      "componentType": 5126,
      "count": 332,
      "max": [
        0.15113626420497894,
        0.22630727291107178,
        0.0832643061876297
      ],
      "min": [
        -0.15113626420497894,
        -0.22369268536567688,
        -0.10877469182014465
      ],
      "type": "VEC3"
    },
    {
      "bufferView": 2,
      "byteOffset": 3984,
      "componentType": 5126,
      "count": 332,
      "max": [
        1.0,
        1.0,
        1.0
      ],
      "min": [
        -1.0,
        -1.0,
        -1.0
      ],
      "type": "VEC3"
    },
    {
      "bufferView": 1,
      "componentType": 5126,
      "count": 332,
      "max": [
        1.0,
        1.0
      ],
      "min": [
        0.0,
        0.0
      ],
      "type": "VEC2"
    },
    {
      "bufferView": 0,
      "componentType": 5125,
      "count": 564,
      "type": "SCALAR"
    },
    {
      "bufferView": 2,
      "byteOffset": 7968,
      "componentType": 5126,
      "count": 640,
      "max": [
        0.11540038883686066,
        -0.2002878189086914,
        -0.060285985469818115
      ],
      "min": [
        -0.18348033726215363,
        -0.4027501344680786,
        -0.14788176119327545
      ],
      "type": "VEC3"
    },
    {
      "bufferView": 2,
      "byteOffset": 15648,
      "componentType": 5126,
      "count": 640,
      "max": [
        0.999858558177948,
        0.9918531775474548,
        0.9999956488609314
      ],
      "min": [
        -0.9998659491539001,
        -0.9891495108604431,
        -0.9999963045120239
      ],
      "type": "VEC3"
    },
    {
      "bufferView": 1,
      "byteOffset": 2656,
      "componentType": 5126,
      "count": 640,
      "max": [
        1.0,
        1.0
      ],
      "min": [
        0.0,
        0.0
      ],
      "type": "VEC2"
    },
    {
      "bufferView": 0,
      "byteOffset": 2256,
      "componentType": 5125,
      "count": 960,
      "type": "SCALAR"
    },
    {
      "bufferView": 2,
      "byteOffset": 23328,
      "componentType": 5126,
      "count": 640,
      "max": [
        0.11367189884185791,
        -0.2002878189086914,
        0.1747724711894989
      ],
      "min": [
        -0.11211903393268585,
        -0.4745864272117615,
        0.07591290026903152
      ],
      "type": "VEC3"
    },
    {
      "bufferView": 2,
      "byteOffset": 31008,
      "componentType": 5126,
      "count": 640,
      "max": [
        0.9999019503593445,
        0.9612013101577759,
        0.9999989867210388
      ],
      "min": [
        -0.9999017119407654,
        -0.9609605073928833,
        -0.999998927116394
      ],
      "type": "VEC3"
    },
    {
      "bufferView": 1,
      "byteOffset": 7776,
      "componentType": 5126,
      "count": 640,
      "max": [
        1.0,
        1.0
      ],
      "min": [
        0.0,
        0.0
      ],
      "type": "VEC2"
    },
    {
      "bufferView": 0,
      "byteOffset": 6096,
      "componentType": 5125,
      "count": 960,
      "type": "SCALAR"
    },
    {
      "bufferView": 2,
      "byteOffset": 38688,
      "componentType": 5126,
      "count": 169,
      "max": [
        0.0021575498394668102,
        0.6758256554603577,
        3.723423480987549
      ],
      "min": [
        -0.0010000000474974513,
        -0.0009990010876208544,
        0.5731831789016724
      ],
      "type": "VEC3"
    },
    {
      "bufferView": 2,
      "byteOffset": 40716,
      "componentType": 5126,
      "count": 169,
      "max": [
        0.999998927116394,
        0.9987236857414246,
        0.5061596035957336
      ],
      "min": [
        -0.9999983310699463,
        -0.9987236857414246,
        -0.5061596035957336
      ],
      "type": "VEC3"
    },
    {
      "bufferView": 1,
      "byteOffset": 12896,
      "componentType": 5126,
      "count": 169,
      "max": [
        1.0,
        1.0
      ],
      "min": [
        0.0,
        0.0
      ],
      "type": "VEC2"
    },
    {
      "bufferView": 0,
      "byteOffset": 9936,
      "componentType": 5125,
      "count": 864,
      "type": "SCALAR"
    },
    {
      "bufferView": 2,
      "byteOffset": 42744,
      "componentType": 5126,
      "count": 441,
      "max": [
        0.15098297595977783,
        0.07730700075626373,
        0.5744573473930359
      ],
      "min": [
        -0.000928131805267185,
        -0.0009995311265811324,
        0.06321524828672409
      ],
      "type": "VEC3"
    },
    {
      "bufferView": 2,
      "byteOffset": 48036,
      "componentType": 5126,
      "count": 441,
      "max": [
        0.9804958701133728,
        0.9985540509223938,
        0.41918447613716125
      ],
      "min": [
        -0.9807198643684387,
        -0.9989551901817322,
        -0.41979122161865234
      ],
      "type": "VEC3"
    },
    {
      "bufferView": 1,
      "byteOffset": 14248,
      "componentType": 5126,
      "count": 441,
      "max": [
        1.0,
        1.0
      ],
      "min": [
        0.0,
        0.0
      ],
      "type": "VEC2"
    },
    {
      "bufferView": 0,
      "byteOffset": 13392,
      "componentType": 5125,
      "count": 2592,
      "type": "SCALAR"
    },
    {
      "bufferView": 2,
      "byteOffset": 53328,
      "componentType": 5126,
      "count": 273,
      "max": [
        0.0009281317470595241,
        0.07730700075626373,
        0.5744573473930359
      ],
      "min": [
        -0.15098297595977783,
        -0.0009995311265811324,
        0.06321524828672409
      ],
      "type": "VEC3"
    },
    {
      "bufferView": 2,
      "byteOffset": 56604,
      "componentType": 5126,
      "count": 273,
      "max": [
        0.9807198643684387,
        0.9985540509223938,
        0.41918396949768066
      ],
      "min": [
        -0.9804958701133728,
        -0.9989551901817322,
        -0.41979122161865234
      ],
      "type": "VEC3"
    },
    {
      "bufferView": 1,
      "byteOffset": 17776,
      "componentType": 5126,
      "count": 273,
      "max": [
        1.0,
        1.0
      ],
      "min": [
        0.0,
        0.0
      ],
      "type": "VEC2"
    },
    {
      "bufferView": 0,
      "byteOffset": 23760,
      "componentType": 5125,
      "count": 2592,
      "type": "SCALAR"
    },
    {
      "bufferView": 2,
      "byteOffset": 59880,
      "componentType": 5126,
      "count": 332,
      "max": [
        0.15113626420497894,
        0.22630727291107178,
        0.0832643061876297
      ],
      "min": [
        -0.15113626420497894,
        -0.22369268536567688,
        -0.10877469182014465
      ],
      "type": "VEC3"
    },
    {
      "bufferView": 2,
      "byteOffset": 63864,
      "componentType": 5126,
      "count": 332,
      "max": [
        1.0,
        1.0,
        1.0
      ],
      "min": [
        -1.0,
        -1.0,
        -1.0
      ],
      "type": "VEC3"
    },
    {
      "bufferView": 1,
      "byteOffset": 19960,
      "componentType": 5126,
      "count": 332,
      "max": [
        1.0,
        1.0
      ],
      "min": [
        0.0,
        0.0
      ],
      "type": "VEC2"
    },
    {
      "bufferView": 0,
      "byteOffset": 34128,
      "componentType": 5125,
      "count": 564,
      "type": "SCALAR"
    },
    {
      "bufferView": 2,
      "byteOffset": 67848,
      "componentType": 5126,
      "count": 640,
      "max": [
        0.11367189884185791,
        -0.2002878189086914,
        0.17437203228473663
      ],
      "min": [
        -0.1119331568479538,
        -0.474342942237854,
        0.07591290026903152
      ],
      "type": "VEC3"
    },
    {
      "bufferView": 2,
      "byteOffset": 75528,
      "componentType": 5126,
      "count": 640,
      "max": [
        0.9999114274978638,
        0.961418628692627,
        0.9999753832817078
      ],
      "min": [
        -0.9998795986175537,
        -0.9610771536827087,
        -0.9999715089797974
      ],
      "type": "VEC3"
    },
    {
      "bufferView": 1,
      "byteOffset": 22616,
      "componentType": 5126,
      "count": 640,
      "max": [
        1.0,
        1.0
      ],
      "min": [
        0.0,
        0.0
      ],
      "type": "VEC2"
    },
    {
      "bufferView": 0,
      "byteOffset": 36384,
      "componentType": 5125,
      "count": 960,
      "type": "SCALAR"
    },
    {
      "bufferView": 2,
      "byteOffset": 83208,
      "componentType": 5126,
      "count": 640,
      "max": [
        0.11540038883686066,
        -0.2002878189086914,
        -0.060300588607788086
      ],
      "min": [
        -0.18371427059173584,
        -0.4024128317832947,
        -0.14776276051998138
      ],
      "type": "VEC3"
    },
    {
      "bufferView": 2,
      "byteOffset": 90888,
      "componentType": 5126,
      "count": 640,
      "max": [
        0.9968745112419128,
        0.9982142448425293,
        0.9999202489852905
      ],
      "min": [
        -0.9969112277030945,
        -0.9980583190917969,
        -0.9999232888221741
      ],
      "type": "VEC3"
    },
    {
      "bufferView": 1,
      "byteOffset": 27736,
      "componentType": 5126,
      "count": 640,
      "max": [
        1.0,
        1.0
      ],
      "min": [
        0.0,
        0.0
      ],
      "type": "VEC2"
    },
    {
      "bufferView": 0,
      "byteOffset": 40224,
      "componentType": 5125,
      "count": 960,
      "type": "SCALAR"
    }
  ],
  "asset": {
    "extras": {
      "author": "game_travel (https://sketchfab.com/game_travel)",
      "license": "CC-BY-4.0 (http://creativecommons.org/licenses/by/4.0/)",
      "source": "https://sketchfab.com/3d-models/kitetako-low-poly-5284714030824872bfe1cc71b25a359d",
      "title": "Kite/Tako (Low Poly)"
    },
    "generator": "Sketchfab-12.65.0",
    "version": "2.0"
  },
  "bufferViews": [
    {
      "buffer": 0,
      "byteLength": 44064,
      "name": "floatBufferViews",
      "target": 34963
    },
    {
      "buffer": 0,
      "byteLength": 32856,
      "byteOffset": 44064,
      "byteStride": 8,
      "name": "floatBufferViews",
      "target": 34962
    },
    {
      "buffer": 0,
      "byteLength": 98568,
      "byteOffset": 76920,
      "byteStride": 12,
      "name": "floatBufferViews",
      "target": 34962
    }
  ],
  "buffers": [
    {
      "byteLength": 175488,
      "uri": "scene.bin"
    }
  ],
  "materials": [
    {
      "doubleSided": true,
      "name": "White",
      "pbrMetallicRoughness": {
        "metallicFactor": 0.0,
        "roughnessFactor": 0.5
      }
    }
  ],
  "meshes": [
    {
      "name": "Object_0",
      "primitives": [
        {
          "attributes": {
            "NORMAL": 1,
            "POSITION": 0,
            "TEXCOORD_0": 2
          },
          "indices": 3,
          "material": 0,
          "mode": 4
        }
      ]
    },
    {
      "name": "Object_1",
      "primitives": [
        {
          "attributes": {
            "NORMAL": 5,
            "POSITION": 4,
            "TEXCOORD_0": 6
          },
          "indices": 7,
          "material": 0,
          "mode": 4
        }
      ]
    },
    {
      "name": "Object_2",
      "primitives": [
        {
          "attributes": {
            "NORMAL": 9,
            "POSITION": 8,
            "TEXCOORD_0": 10
          },
          "indices": 11,
          "material": 0,
          "mode": 4
        }
      ]
    },
    {
      "name": "Object_3",
      "primitives": [
        {
          "attributes": {
            "NORMAL": 13,
            "POSITION": 12,
            "TEXCOORD_0": 14
          },
          "indices": 15,
          "material": 0,
          "mode": 4
        }
      ]
    },
    {
      "name": "Object_4",
      "primitives": [
        {
          "attributes": {
            "NORMAL": 17,
            "POSITION": 16,
            "TEXCOORD_0": 18
          },
          "indices": 19,
          "material": 0,
          "mode": 4
        }
      ]
    },
    {
      "name": "Object_5",
      "primitives": [
        {
          "attributes": {
            "NORMAL": 21,
            "POSITION": 20,
            "TEXCOORD_0": 22
          },
          "indices": 23,
          "material": 0,
          "mode": 4
        }
      ]
    },
    {
      "name": "Object_6",
      "primitives": [
        {
          "attributes": {
            "NORMAL": 25,
            "POSITION": 24,
            "TEXCOORD_0": 26
          },
          "indices": 27,
          "material": 0,
          "mode": 4
        }
      ]
    },
    {
      "name": "Object_7",
      "primitives": [
        {
          "attributes": {
            "NORMAL": 29,
            "POSITION": 28,
            "TEXCOORD_0": 30
          },
          "indices": 31,
          "material": 0,
          "mode": 4
        }
      ]
    },
    {
      "name": "Object_8",
      "primitives": [
        {
          "attributes": {
            "NORMAL": 33,
            "POSITION": 32,
            "TEXCOORD_0": 34
          },
          "indices": 35,
          "material": 0,
          "mode": 4
        }
      ]
    }
  ],
  "nodes": [
    {
      "children": [
        1
      ],
      "matrix": [
        1.0,
        0.0,
        0.0,
        0.0,
        0.0,
        2.220446049250313e-16,
        -1.0,
        0.0,
        0.0,
        1.0,
        2.220446049250313e-16,
        0.0,
        0.0,
        0.0,
        0.0,
        1.0
      ],
      "name": "Sketchfab_model"
    },
    {
      "children": [
        2
      ],
      "name": "root"
    },
    {
      "children": [
        3,
        10
      ],
      "matrix": [
        1.0,
        0.0,
        0.0,
        0.0,
        0.0,
        2.220446049250313e-16,
        1.0,
        0.0,
        0.0,
        -1.0,
        2.220446049250313e-16,
        0.0,
        0.0,
        0.0,
        0.0,
        1.0
      ],
      "name": "GLTF_SceneRootNode"
    },
    {
      "children": [
        4,
        6,
        8
      ],
      "matrix": [
        1.0,
        0.0,
        0.0,
        0.0,
        0.0,
        0.769744171876542,
        0.6383524965582077,
        0.0,
        0.0,
        -0.6383524965582077,
        0.769744171876542,
        0.0,
        0.0,
        0.0,
        0.0,
        1.0
      ],
      "name": "Gp_Kite_10"
    },
    {
      "children": [
        5
      ],
      "matrix": [
        1.0,
        0.0,
        0.0,
        0.0,
        0.0,
        1.0,
        0.0,
        0.0,
        0.0,
        0.0,
        1.0,
        0.0,
        0.0,
        -0.6705681085586548,
        -3.721698045730591,
        1.0
      ],
      "name": "Obj_Kite_7"
    },
    {
      "mesh": 0,
      "name": "Object_5"
    },
    {
      "children": [
        7
      ],
      "matrix": [
        -0.15571355172133772,
        0.0,
        -0.9878022523816831,
        0.0,
        0.0,
        1.0,
        0.0,
        0.0,
        0.9878022523816831,
        0.0,
        -0.15571355172133772,
        0.0,
        0.0,
        -0.6705681085586548,
        -3.721698045730591,
        1.0
      ],
      "name": "Obj_Nagashi_8"
    },
    {
      "mesh": 1,
      "name": "Object_7"
    },
    {
      "children": [
        9
      ],
      "matrix": [
        0.14805008204413528,
        0.0,
        -0.9889798649147135,
        0.0,
        0.0,
        1.0,
        0.0,
        0.0,
        0.9889798649147135,
        0.0,
        0.14805008204413528,
        0.0,
        0.0,
        -0.6705681085586548,
        -3.721698045730591,
        1.0
      ],
      "name": "Obj_Nagashi.001_9"
    },
    {
      "mesh": 2,
      "name": "Object_9"
    },
    {
      "children": [
        11,
        13,
        15,
        17,
        19,
        21
      ],
      "matrix": [
        1.0,
        0.0,
        0.0,
        0.0,
        0.0,
        0.769744171876542,
        0.6383524965582077,
        0.0,
        0.0,
        -0.6383524965582077,
        0.769744171876542,
        0.0,
        0.0,
        0.0,
        0.0,
        1.0
      ],
      "name": "Gp_Kite.001_17"
    },
    {
      "children": [
        12
      ],
      "matrix": [
        1.0,
        0.0,
        0.0,
        0.0,
        0.0,
        1.0,
        0.0,
        0.0,
        0.0,
        0.0,
        1.0,
        0.0,
        0.0,
        -0.6705681085586548,
        -3.721698045730591,
        1.0
      ],
      "name": "Curve_Line.006_11"
    },
    {
      "mesh": 3,
      "name": "Object_12"
    },
    {
      "children": [
        14
      ],
      "matrix": [
        1.0,
        0.0,
        0.0,
        0.0,
        0.0,
        1.0,
        0.0,
        0.0,
        0.0,
        0.0,
        1.0,
        0.0,
        0.0,
        -0.6705681085586548,
        -3.721698045730591,
        1.0
      ],
      "name": "Curve_Line.007_12"
    },
    {
      "mesh": 4,
      "name": "Object_14"
    },
    {
      "children": [
        16
      ],
      "matrix": [
        1.0,
        0.0,
        0.0,
        0.0,
        0.0,
        1.0,
        0.0,
        0.0,
        0.0,
        0.0,
        1.0,
        0.0,
        0.0,
        -0.6705681085586548,
        -3.721698045730591,
        1.0
      ],
      "name": "Curve_Line.008_13"
    },
    {
      "mesh": 5,
      "name": "Object_16"
    },
    {
      "children": [
        18
      ],
      "matrix": [
        1.0,
        0.0,
        0.0,
        0.0,
        0.0,
        1.0,
        0.0,
        0.0,
        0.0,
        0.0,
        1.0,
        0.0,
        0.0,
        -0.6705681085586548,
        -3.721698045730591,
        1.0
      ],
      "name": "Obj_Kite.001_14"
    },
    {
      "mesh": 6,
      "name": "Object_18"
    },
    {
      "children": [
        20
      ],
      "matrix": [
        0.14805008204413528,
        0.0,
        -0.9889798649147135,
        0.0,
        0.0,
        1.0,
        0.0,
        0.0,
        0.9889798649147135,
        0.0,
        0.14805008204413528,
        0.0,
        0.0,
        -0.6705681085586548,
        -3.721698045730591,
        1.0
      ],
      "name": "Obj_Nagashi.002_15"
    },
    {
      "mesh": 7,
      "name": "Object_20"
    },
    {
      "children": [
        22
      ],
      "matrix": [
        -0.15571355172133772,
        0.0,
        -0.9878022523816831,
        0.0,
        0.0,
        1.0,
        0.0,
        0.0,
        0.9878022523816831,
        0.0,
        -0.15571355172133772,
        0.0,
        0.0,
        -0.6705681085586548,
        -3.721698045730591,
        1.0
      ],
      "name": "Obj_Nagashi.003_16"
    },
    {
      "mesh": 8,
      "name": "Object_22"
    }
  ],
  "scene": 0,
  "scenes": [
    {
      "name": "Sketchfab_Scene",
      "nodes": [
        0
      ]
    }
  ]
}
